<svg xmlns="http://www.w3.org/2000/svg" xmlns:ev="http://www.w3.org/2001/xml-events" xmlns:xlink="http://www.w3.org/1999/xlink" width="256" height="256" version="1.1" viewBox="-128 -128 256 256"><style>.diamond{fill:#0f3a80}circle.back,circle.front{fill:#ffa600;stroke:#0f3a80;stroke-width:6}circle.front{fill:#fff}line.back{stroke:#ffa600;stroke-width:7}line.front,line.shadow{stroke:#fff;stroke-width:7}line.shadow{stroke:#0f3a80}</style><defs><marker id="barrow" markerHeight="3" markerUnits="strokeWidth" markerWidth="4" orient="auto" refX=".05" refY="1.5"><path fill="#ffa600" d="M0,0 L0,3 L4,1.5 z"/></marker><marker id="farrow" markerHeight="3" markerUnits="strokeWidth" markerWidth="4" orient="auto" refX=".05" refY="1.5"><path fill="#fff" d="M0,0 L0,3 L4,1.5 z"/></marker></defs><rect width="194" height="194" x="-97" y="-97" class="diamond" rx="26" ry="26" transform="rotate(45)"/><line x1="-11" x2="-11" y1="-80" y2="-29" marker-end="url(#barrow)" class="back" transform="rotate(42 -11 -80)"/><line x1="-80" x2="-80" y1="0" y2="57" marker-end="url(#barrow)" class="back" transform="rotate(-45 -80 0)"/><line x1="-11" x2="-11" y1="-80" y2="28" marker-end="url(#barrow)" class="back"/><circle cx="-11" cy="-80" r="23" class="back"/><circle cx="0" cy="80" r="23" class="back"/><circle cx="-80" cy="0" r="23" class="back"/><line x1="18" x2="18" y1="-80" y2="0" class="shadow" transform="rotate(42 17 -80)"/><line x1="13" x2="13" y1="-80" y2="-5" marker-end="url(#farrow)" class="front" transform="rotate(42 11 -80)"/><line x1="11" x2="11" y1="-80" y2="-29" marker-end="url(#farrow)" class="front" transform="rotate(-42 11 -80)"/><line x1="80" x2="80" y1="0" y2="57" marker-end="url(#farrow)" class="front" transform="rotate(45 80 0)"/><line x1="11" x2="11" y1="-80" y2="28" marker-end="url(#farrow)" class="front"/><circle cx="11" cy="-80" r="23" class="front"/><circle cx="80" cy="0" r="23" class="front"/></svg>