<svg xmlns="http://www.w3.org/2000/svg" xmlns:svg="http://www.w3.org/2000/svg" id="Calque_1" width="278.747" height="149.679" x="0" y="0" version="1.1" viewBox="0 0 86.783 46.6" xml:space="preserve"><metadata id="metadata30"/><style id="style20" type="text/css">.st0,.st1{fill:#7fd787}.st1{opacity:.28;enable-background:new}</style><path id="path22" d="m 73.8,14.700001 0,0 0,0 z M 66.1,35.5 C 65.6,34.400001 65.4,33.200001 65.4,32 l 0,-17.399999 8.4,0 -1.1,-2.1 -7.3,0 0,-7.700001 -2.4,0 0,7.600001 -7.4,0 -1.1,2.2 8.5,0 L 63,31.3 c -0.1,1.8 0.2,3.6 0.8,5.1 0,0.1 0.7,1.5 1.8,2.9 0.6,0.6 1.7,1.6 3.2,2.7 l 1.1,-2.2 c -1.2,-0.8 -2,-1.5 -2.5,-2 -0.8,-1.2 -1.3,-2.3 -1.3,-2.3 z M 39.2,4.5 c -1.5,0.9 -2.6,2.1 -3.5,3.4 -0.4,0.7000004 -6.6,9.900001 -10.1,15.2 -2.9,4.400001 -10.3,15.5 -10.8,16.200001 -1.2,2 -2.9,3.799999 -4.8,5.1 0,0.1 -2.1,1.3 -4.6,2.1 -0.2,0 -0.4,0.1 -0.5,0.1 l 36.8,0 c -0.1,0 -0.2,-0.1 -0.4,-0.1 -2.5,-0.8 -4.5,-2 -4.6,-2.1 -1.9,-1.3 -3.6,-3.1 -4.8,-5.1 L 23.3,26.4 c 0.8,-1.199999 1.5,-2.3 2.1,-3.1 0,0.1 0.1,0.1 0.1,0.2 3.5,5.3 9.7,14.5 10.1,15.200001 0.9,1.299999 2,2.5 3.5,3.399999 0,0 1.5,1 3.5,1.600001 0.8,0.299999 2.2,0.5 4,0.7 l 0,2.1 0.1,0 L 46.7,2.2 c -1.8,0.2 -3.2,0.4 -4,0.7 -2,0.6 -3.5,1.6 -3.5,1.6 z M 11,38.800001 C 11.4,38.1 17.6,28.9 21.1,23.6 24,19.1 31.4,8.1 31.9,7.3 c 1.2,-2 2.9,-3.8 4.8,-5.1 0,-0.1 2.1,-1.3 4.6,-2.1 0.2,0 0.4,-0.1 0.5,-0.1 L 5,0 c 0.1,0 0.3,0.1 0.4,0.1 2.5,0.8 4.5,2 4.6,2.1 1.9,1.3 3.6,3.1 4.8,5.1 l 8.6,12.900001 c -0.8,1.199999 -1.5,2.3 -2.1,3.1 0,-0.1 -0.1,-0.1 -0.1,-0.200001 C 17.6,17.9 11.4,8.6000004 11,7.9 10.1,6.6 9,5.4 7.5,4.5 7.5,4.5 6,3.5 4,2.9 3.2,2.6 1.8,2.4 0,2.2 l 0,42.4 c 1.8,-0.199999 3.2,-0.399999 4,-0.699999 2,-0.6 3.5,-1.6 3.5,-1.6 1.5,-1.1 2.7,-2.200001 3.5,-3.5 z" class="st0" style="fill:#d77f7f;fill-opacity:1"/><path id="path24" d="m 25.4,23.300001 c -0.6,0.8 -1.3,1.9 -2.1,3.1 3.4,5.1 8.1,12.3 8.6,12.9 1.2,2 2.9,3.799999 4.8,5.1 0,0.1 2.1,1.3 4.6,2.1 0.2,0 0.4,0.1 0.5,0.1 l 4.8,0 0,-2.2 c -1.8,-0.2 -3.2,-0.400001 -4,-0.7 C 40.6,43.1 39.1,42.1 39.1,42.1 37.6,41.200001 36.5,40 35.6,38.700001 35.2,38 29,28.800001 25.5,23.500001 l 0,0 c 0,0 0,-0.100001 -0.1,-0.2 M 4.8,0 0,0 0,2.2 c 1.8,0.2 3.2,0.4 4,0.7 2,0.6 3.5,1.6 3.5,1.6 1.5,0.9 2.6,2.1 3.5,3.4 0.4,0.7000004 6.6,9.900001 10.1,15.2 l 0,0 c 0,0.100001 0.1,0.100001 0.1,0.2 0.6,-0.8 1.3,-1.9 2.1,-3.1 C 19.9,15.100001 15.2,7.9 14.7,7.3 13.5,5.3 11.8,3.5 9.9,2.2 9.9,2.1 7.8,0.9 5.3,0.1 5.2,0.1 5,0 4.8,0" class="st1" style="opacity:.28000004;fill:#d77f7f;fill-opacity:1;enable-background:new"/><path id="path11" d="m 85.783221,1.2999959 -2.3,0.4 0,31.4000021 c 0,3.9 0.2,7.5 1,10.4 l 2.3,0 c -0.8,-2.9 -1,-6.6 -1,-10.3 z" class="st0" style="fill:#d77f7f;fill-opacity:1"/></svg>